<?xml version="1.0" encoding="UTF-8" ?>
<svg version="1.1" width="160" height="140" xmlns="http://www.w3.org/2000/svg" shape-rendering="crispEdges">
<rect x="64" y="54" width="9" height="1" fill="#0D5D57" />
<rect x="58" y="55" width="6" height="1" fill="#0D5D57" />
<rect x="64" y="55" width="9" height="3" fill="#0D8B57" />
<rect x="73" y="55" width="7" height="1" fill="#0D5D57" />
<rect x="95" y="55" width="20" height="1" fill="#0D5D57" />
<rect x="55" y="56" width="3" height="1" fill="#0D5D57" />
<rect x="58" y="56" width="6" height="2" fill="#0D8B57" />
<rect x="73" y="56" width="7" height="3" fill="#0D8B57" />
<rect x="80" y="56" width="1" height="1" fill="#0D5D57" />
<rect x="92" y="56" width="3" height="1" fill="#0D5D57" />
<rect x="95" y="56" width="20" height="4" fill="#0D8B57" />
<rect x="115" y="56" width="1" height="1" fill="#0D5D57" />
<rect x="54" y="57" width="1" height="1" fill="#0D5D57" />
<rect x="55" y="57" width="3" height="1" fill="#0D8B57" />
<rect x="80" y="57" width="1" height="4" fill="#0D8B57" />
<rect x="81" y="57" width="2" height="1" fill="#0D5D57" />
<rect x="91" y="57" width="1" height="1" fill="#0D5D57" />
<rect x="92" y="57" width="3" height="4" fill="#0D8B57" />
<rect x="115" y="57" width="1" height="4" fill="#0D8B57" />
<rect x="116" y="57" width="2" height="1" fill="#0D5D57" />
<rect x="53" y="58" width="1" height="1" fill="#0D5D57" />
<rect x="54" y="58" width="1" height="2" fill="#0D8B57" />
<rect x="55" y="58" width="16" height="1" fill="#0D5D57" />
<rect x="71" y="58" width="2" height="1" fill="#0D8B57" />
<rect x="81" y="58" width="2" height="3" fill="#0D8B57" />
<rect x="83" y="58" width="1" height="1" fill="#0D5D57" />
<rect x="90" y="58" width="1" height="1" fill="#0D5D57" />
<rect x="91" y="58" width="1" height="4" fill="#0D8B57" />
<rect x="116" y="58" width="2" height="3" fill="#0D8B57" />
<rect x="118" y="58" width="2" height="1" fill="#0D5D57" />
<rect x="51" y="59" width="2" height="2" fill="#0D5D57" />
<rect x="53" y="59" width="1" height="1" fill="#0D8B57" />
<rect x="55" y="59" width="16" height="2" fill="#0D8B57" />
<rect x="71" y="59" width="6" height="1" fill="#0D5D57" />
<rect x="77" y="59" width="3" height="1" fill="#0D8B57" />
<rect x="83" y="59" width="1" height="3" fill="#0D8B57" />
<rect x="84" y="59" width="1" height="2" fill="#0D5D57" />
<rect x="89" y="59" width="1" height="2" fill="#0D5D57" />
<rect x="90" y="59" width="1" height="3" fill="#0D8B57" />
<rect x="118" y="59" width="2" height="3" fill="#0D8B57" />
<rect x="120" y="59" width="1" height="1" fill="#0D5D57" />
<rect x="50" y="60" width="1" height="2" fill="#0D5D57" />
<rect x="53" y="60" width="2" height="1" fill="#0D5D57" />
<rect x="71" y="60" width="6" height="6" fill="#0D8B57" />
<rect x="77" y="60" width="1" height="1" fill="#0D5D57" />
<rect x="78" y="60" width="2" height="1" fill="#0D8B57" />
<rect x="85" y="60" width="1" height="1" fill="#0D5D57" />
<rect x="95" y="60" width="5" height="1" fill="#0D8B57" />
<rect x="100" y="60" width="12" height="1" fill="#0D5D57" />
<rect x="112" y="60" width="3" height="1" fill="#0D8B57" />
<rect x="120" y="60" width="1" height="2" fill="#0D8B57" />
<rect x="121" y="60" width="1" height="1" fill="#0D5D57" />
<rect x="49" y="61" width="1" height="1" fill="#0D5D57" />
<rect x="55" y="61" width="5" height="1" fill="#0D5D57" />
<rect x="60" y="61" width="11" height="1" fill="#0D8B57" />
<rect x="77" y="61" width="1" height="6" fill="#0D8B57" />
<rect x="78" y="61" width="4" height="1" fill="#0D5D57" />
<rect x="82" y="61" width="1" height="1" fill="#0D8B57" />
<rect x="84" y="61" width="2" height="2" fill="#0D8B57" />
<rect x="86" y="61" width="1" height="1" fill="#0D5D57" />
<rect x="88" y="61" width="1" height="1" fill="#0D5D57" />
<rect x="89" y="61" width="1" height="2" fill="#0D8B57" />
<rect x="92" y="61" width="2" height="1" fill="#0D8B57" />
<rect x="94" y="61" width="6" height="1" fill="#0D5D57" />
<rect x="100" y="61" width="12" height="7" fill="#0D8B57" />
<rect x="112" y="61" width="6" height="1" fill="#0D5D57" />
<rect x="121" y="61" width="1" height="1" fill="#0D8B57" />
<rect x="122" y="61" width="1" height="1" fill="#0D5D57" />
<rect x="60" y="62" width="1" height="1" fill="#0D5D57" />
<rect x="61" y="62" width="10" height="1" fill="#0D8B57" />
<rect x="78" y="62" width="4" height="4" fill="#0D8B57" />
<rect x="82" y="62" width="2" height="1" fill="#0D5D57" />
<rect x="86" y="62" width="1" height="1" fill="#0D8B57" />
<rect x="87" y="62" width="1" height="1" fill="#0D5D57" />
<rect x="88" y="62" width="1" height="2" fill="#0D8B57" />
<rect x="90" y="62" width="4" height="1" fill="#0D5D57" />
<rect x="94" y="62" width="6" height="5" fill="#0D8B57" />
<rect x="112" y="62" width="6" height="4" fill="#0D8B57" />
<rect x="118" y="62" width="4" height="1" fill="#0D5D57" />
<rect x="122" y="62" width="1" height="1" fill="#0D8B57" />
<rect x="123" y="62" width="1" height="1" fill="#0D5D57" />
<rect x="61" y="63" width="4" height="1" fill="#0D5D57" />
<rect x="65" y="63" width="6" height="1" fill="#0D8B57" />
<rect x="82" y="63" width="2" height="2" fill="#0D8B57" />
<rect x="84" y="63" width="3" height="2" fill="#0D5D57" />
<rect x="87" y="63" width="1" height="1" fill="#0D8B57" />
<rect x="89" y="63" width="1" height="1" fill="#0D5D57" />
<rect x="90" y="63" width="4" height="2" fill="#0D8B57" />
<rect x="118" y="63" width="4" height="2" fill="#0D8B57" />
<rect x="122" y="63" width="1" height="2" fill="#0D5D57" />
<rect x="65" y="64" width="1" height="1" fill="#0D5D57" />
<rect x="66" y="64" width="5" height="1" fill="#0D8B57" />
<rect x="87" y="64" width="2" height="1" fill="#0D5D57" />
<rect x="89" y="64" width="1" height="1" fill="#0D8B57" />
<rect x="66" y="65" width="5" height="1" fill="#0D5D57" />
<rect x="82" y="65" width="2" height="1" fill="#0D5D57" />
<rect x="84" y="65" width="2" height="7" fill="#0D8B57" />
<rect x="86" y="65" width="1" height="7" fill="#0D5D57" />
<rect x="89" y="65" width="4" height="1" fill="#0D5D57" />
<rect x="93" y="65" width="1" height="1" fill="#0D8B57" />
<rect x="118" y="65" width="4" height="1" fill="#0D5D57" />
<rect x="71" y="66" width="1" height="1" fill="#136458" />
<rect x="72" y="66" width="5" height="1" fill="#0D8B57" />
<rect x="78" y="66" width="3" height="1" fill="#0D8B57" />
<rect x="81" y="66" width="1" height="1" fill="#0D5D57" />
<rect x="83" y="66" width="1" height="6" fill="#0D5D57" />
<rect x="93" y="66" width="1" height="1" fill="#0D5D57" />
<rect x="112" y="66" width="5" height="1" fill="#0D8B57" />
<rect x="117" y="66" width="1" height="1" fill="#0D5D57" />
<rect x="72" y="67" width="9" height="1" fill="#0D5D57" />
<rect x="94" y="67" width="1" height="1" fill="#0D5D57" />
<rect x="95" y="67" width="5" height="1" fill="#0D8B57" />
<rect x="112" y="67" width="1" height="1" fill="#0D8B57" />
<rect x="113" y="67" width="4" height="1" fill="#0D5D57" />
<rect x="95" y="68" width="18" height="1" fill="#0D5D57" />
<rect x="82" y="72" width="1" height="18" fill="#0D5D57" />
<rect x="83" y="72" width="2" height="18" fill="#0D8B57" />
<rect x="85" y="72" width="1" height="18" fill="#0D5D57" />
<rect x="65" y="75" width="17" height="1" fill="#0D5D57" />
<rect x="86" y="75" width="15" height="1" fill="#0D5D57" />
<rect x="53" y="76" width="12" height="1" fill="#0D5D57" />
<rect x="65" y="76" width="17" height="35" fill="#0D6E57" />
<rect x="86" y="76" width="15" height="7" fill="#0D6E57" />
<rect x="101" y="76" width="11" height="1" fill="#0D5D57" />
<rect x="52" y="77" width="1" height="2" fill="#0D5D57" />
<rect x="53" y="77" width="12" height="11" fill="#0D6E57" />
<rect x="101" y="77" width="11" height="6" fill="#0D6E57" />
<rect x="112" y="77" width="1" height="2" fill="#0D5D57" />
<rect x="51" y="79" width="1" height="1" fill="#0D5D57" />
<rect x="52" y="79" width="1" height="9" fill="#0D6E57" />
<rect x="112" y="79" width="1" height="49" fill="#0D6E57" />
<rect x="113" y="79" width="7" height="1" fill="#0D5D57" />
<rect x="45" y="80" width="6" height="1" fill="#0D5D57" />
<rect x="51" y="80" width="1" height="6" fill="#0D6E57" />
<rect x="113" y="80" width="7" height="27" fill="#0D6E57" />
<rect x="120" y="80" width="1" height="1" fill="#0D5D57" />
<rect x="44" y="81" width="1" height="1" fill="#0D5D57" />
<rect x="45" y="81" width="6" height="4" fill="#0D6E57" />
<rect x="120" y="81" width="1" height="30" fill="#0D6E57" />
<rect x="121" y="81" width="1" height="1" fill="#0D5D57" />
<rect x="40" y="82" width="4" height="1" fill="#0D5D57" />
<rect x="44" y="82" width="1" height="25" fill="#0D6E57" />
<rect x="121" y="82" width="1" height="30" fill="#0D6E57" />
<rect x="122" y="82" width="3" height="1" fill="#0D5D57" />
<rect x="39" y="83" width="1" height="2" fill="#0D5D57" />
<rect x="40" y="83" width="4" height="24" fill="#0D6E57" />
<rect x="86" y="83" width="13" height="1" fill="#0D6E57" />
<rect x="99" y="83" width="1" height="1" fill="#0D5D57" />
<rect x="100" y="83" width="8" height="1" fill="#0D6E57" />
<rect x="108" y="83" width="3" height="1" fill="#0D5D57" />
<rect x="111" y="83" width="1" height="1" fill="#0D6E57" />
<rect x="122" y="83" width="3" height="22" fill="#0D6E57" />
<rect x="125" y="83" width="1" height="2" fill="#0D5D57" />
<rect x="86" y="84" width="11" height="6" fill="#0D6E57" />
<rect x="97" y="84" width="2" height="1" fill="#0D5D57" />
<rect x="99" y="84" width="1" height="2" fill="#0DA457" />
<rect x="100" y="84" width="1" height="2" fill="#0D5D57" />
<rect x="101" y="84" width="6" height="1" fill="#0D6E57" />
<rect x="107" y="84" width="1" height="2" fill="#0D5D57" />
<rect x="108" y="84" width="3" height="2" fill="#0DA457" />
<rect x="111" y="84" width="1" height="2" fill="#0D5D57" />
<rect x="36" y="85" width="3" height="1" fill="#0D5D57" />
<rect x="39" y="85" width="1" height="26" fill="#0D6E57" />
<rect x="45" y="85" width="2" height="1" fill="#0D6E57" />
<rect x="47" y="85" width="4" height="1" fill="#0D5D57" />
<rect x="97" y="85" width="1" height="32" fill="#0D6E57" />
<rect x="98" y="85" width="1" height="1" fill="#0D5D57" />
<rect x="101" y="85" width="1" height="1" fill="#0D5D57" />
<rect x="102" y="85" width="4" height="1" fill="#0D6E57" />
<rect x="106" y="85" width="1" height="1" fill="#0D5D57" />
<rect x="125" y="85" width="1" height="17" fill="#0D6E57" />
<rect x="126" y="85" width="4" height="1" fill="#0D5D57" />
<rect x="35" y="86" width="1" height="1" fill="#0D5D57" />
<rect x="36" y="86" width="3" height="26" fill="#0D6E57" />
<rect x="45" y="86" width="1" height="22" fill="#0D6E57" />
<rect x="46" y="86" width="1" height="2" fill="#0D5D57" />
<rect x="47" y="86" width="4" height="2" fill="#0DA457" />
<rect x="51" y="86" width="1" height="2" fill="#0D5D57" />
<rect x="98" y="86" width="1" height="32" fill="#0D6E57" />
<rect x="99" y="86" width="1" height="1" fill="#0D5D57" />
<rect x="100" y="86" width="2" height="33" fill="#0D6E57" />
<rect x="102" y="86" width="1" height="2" fill="#0D5D57" />
<rect x="103" y="86" width="2" height="2" fill="#0D6E57" />
<rect x="105" y="86" width="1" height="2" fill="#0D5D57" />
<rect x="106" y="86" width="2" height="30" fill="#0D6E57" />
<rect x="108" y="86" width="3" height="1" fill="#0D5D57" />
<rect x="111" y="86" width="1" height="44" fill="#0D6E57" />
<rect x="126" y="86" width="4" height="15" fill="#0D6E57" />
<rect x="130" y="86" width="1" height="2" fill="#0D5D57" />
<rect x="34" y="87" width="1" height="1" fill="#0D5D57" />
<rect x="35" y="87" width="1" height="25" fill="#0D6E57" />
<rect x="99" y="87" width="1" height="31" fill="#0D6E57" />
<rect x="108" y="87" width="3" height="29" fill="#0D6E57" />
<rect x="31" y="88" width="3" height="1" fill="#0D5D57" />
<rect x="34" y="88" width="1" height="23" fill="#0D6E57" />
<rect x="46" y="88" width="1" height="39" fill="#0D6E57" />
<rect x="47" y="88" width="4" height="1" fill="#0D5D57" />
<rect x="51" y="88" width="1" height="39" fill="#0D6E57" />
<rect x="52" y="88" width="2" height="1" fill="#0D5D57" />
<rect x="54" y="88" width="7" height="1" fill="#0D6E57" />
<rect x="61" y="88" width="2" height="1" fill="#0D5D57" />
<rect x="63" y="88" width="2" height="1" fill="#0D6E57" />
<rect x="102" y="88" width="1" height="34" fill="#0D6E57" />
<rect x="103" y="88" width="2" height="1" fill="#0D5D57" />
<rect x="105" y="88" width="1" height="31" fill="#0D6E57" />
<rect x="130" y="88" width="1" height="14" fill="#0D6E57" />
<rect x="131" y="88" width="2" height="1" fill="#0D5D57" />
<rect x="30" y="89" width="1" height="1" fill="#0D5D57" />
<rect x="31" y="89" width="3" height="18" fill="#0D6E57" />
<rect x="47" y="89" width="4" height="38" fill="#0D6E57" />
<rect x="52" y="89" width="2" height="39" fill="#0D6E57" />
<rect x="54" y="89" width="1" height="1" fill="#0D5D57" />
<rect x="55" y="89" width="4" height="1" fill="#0D6E57" />
<rect x="59" y="89" width="2" height="1" fill="#0D5D57" />
<rect x="61" y="89" width="2" height="1" fill="#0DA457" />
<rect x="63" y="89" width="1" height="1" fill="#0D5D57" />
<rect x="64" y="89" width="1" height="21" fill="#0D6E57" />
<rect x="103" y="89" width="1" height="2" fill="#0D5D57" />
<rect x="104" y="89" width="1" height="32" fill="#0D6E57" />
<rect x="131" y="89" width="2" height="31" fill="#0D6E57" />
<rect x="133" y="89" width="1" height="1" fill="#0D5D57" />
<rect x="29" y="90" width="1" height="1" fill="#0D5D57" />
<rect x="30" y="90" width="1" height="16" fill="#0D6E57" />
<rect x="54" y="90" width="1" height="40" fill="#0D6E57" />
<rect x="55" y="90" width="1" height="2" fill="#0D5D57" />
<rect x="56" y="90" width="2" height="2" fill="#0D6E57" />
<rect x="58" y="90" width="1" height="2" fill="#0D5D57" />
<rect x="59" y="90" width="2" height="40" fill="#0D6E57" />
<rect x="61" y="90" width="2" height="1" fill="#0D5D57" />
<rect x="63" y="90" width="1" height="21" fill="#0D6E57" />
<rect x="82" y="90" width="1" height="41" fill="#0D6E57" />
<rect x="83" y="90" width="1" height="5" fill="#0D5D57" />
<rect x="84" y="90" width="2" height="5" fill="#0D8B57" />
<rect x="86" y="90" width="1" height="5" fill="#0D5D57" />
<rect x="87" y="90" width="10" height="5" fill="#0D6E57" />
<rect x="133" y="90" width="1" height="29" fill="#0D6E57" />
<rect x="134" y="90" width="3" height="1" fill="#0D5D57" />
<rect x="28" y="91" width="1" height="1" fill="#0D5D57" />
<rect x="29" y="91" width="1" height="14" fill="#0D6E57" />
<rect x="61" y="91" width="2" height="39" fill="#0D6E57" />
<rect x="103" y="91" width="1" height="32" fill="#0D6E57" />
<rect x="134" y="91" width="3" height="26" fill="#0D6E57" />
<rect x="137" y="91" width="1" height="1" fill="#0D5D57" />
<rect x="27" y="92" width="1" height="1" fill="#0D5D57" />
<rect x="28" y="92" width="1" height="13" fill="#0D6E57" />
<rect x="55" y="92" width="1" height="38" fill="#0D6E57" />
<rect x="56" y="92" width="2" height="1" fill="#0D5D57" />
<rect x="58" y="92" width="1" height="38" fill="#0D6E57" />
<rect x="137" y="92" width="1" height="23" fill="#0D6E57" />
<rect x="138" y="92" width="1" height="4" fill="#0D5D57" />
<rect x="26" y="93" width="1" height="3" fill="#0D5D57" />
<rect x="27" y="93" width="1" height="13" fill="#0D6E57" />
<rect x="56" y="93" width="1" height="3" fill="#0D5D57" />
<rect x="57" y="93" width="1" height="37" fill="#0D6E57" />
<rect x="83" y="95" width="1" height="36" fill="#0D6E57" />
<rect x="84" y="95" width="1" height="3" fill="#0D5D57" />
<rect x="85" y="95" width="2" height="3" fill="#0D8B57" />
<rect x="87" y="95" width="1" height="3" fill="#0D5D57" />
<rect x="88" y="95" width="9" height="20" fill="#0D6E57" />
<rect x="25" y="96" width="1" height="1" fill="#0D5D57" />
<rect x="26" y="96" width="1" height="18" fill="#0D6E57" />
<rect x="56" y="96" width="1" height="34" fill="#0D6E57" />
<rect x="138" y="96" width="1" height="18" fill="#0D6E57" />
<rect x="139" y="96" width="1" height="2" fill="#0D5D57" />
<rect x="24" y="97" width="1" height="1" fill="#0D5D57" />
<rect x="25" y="97" width="1" height="16" fill="#0D6E57" />
<rect x="23" y="98" width="1" height="3" fill="#0D5D57" />
<rect x="24" y="98" width="1" height="13" fill="#0D6E57" />
<rect x="84" y="98" width="4" height="33" fill="#0D6E57" />
<rect x="139" y="98" width="1" height="13" fill="#0D6E57" />
<rect x="140" y="98" width="1" height="3" fill="#0D5D57" />
<rect x="22" y="101" width="1" height="1" fill="#0D5D57" />
<rect x="23" y="101" width="1" height="7" fill="#0D6E57" />
<rect x="126" y="101" width="4" height="1" fill="#0D5D57" />
<rect x="140" y="101" width="1" height="7" fill="#0D6E57" />
<rect x="141" y="101" width="1" height="7" fill="#0D5D57" />
<rect x="21" y="102" width="1" height="5" fill="#0D5D57" />
<rect x="22" y="102" width="1" height="5" fill="#0D6E57" />
<rect x="125" y="102" width="1" height="3" fill="#0D5D57" />
<rect x="126" y="102" width="4" height="3" fill="#0DA457" />
<rect x="130" y="102" width="1" height="3" fill="#0D5D57" />
<rect x="28" y="105" width="2" height="1" fill="#0D5D57" />
<rect x="122" y="105" width="2" height="3" fill="#0D6E57" />
<rect x="124" y="105" width="1" height="3" fill="#0D5D57" />
<rect x="125" y="105" width="3" height="1" fill="#0DA457" />
<rect x="128" y="105" width="2" height="1" fill="#0D5D57" />
<rect x="130" y="105" width="1" height="16" fill="#0D6E57" />
<rect x="27" y="106" width="1" height="2" fill="#0D5D57" />
<rect x="28" y="106" width="2" height="2" fill="#0DA457" />
<rect x="30" y="106" width="1" height="2" fill="#0D5D57" />
<rect x="125" y="106" width="2" height="1" fill="#0DA457" />
<rect x="127" y="106" width="1" height="1" fill="#0D5D57" />
<rect x="128" y="106" width="2" height="17" fill="#0D6E57" />
<rect x="22" y="107" width="1" height="1" fill="#0D5D57" />
<rect x="31" y="107" width="1" height="1" fill="#0D5D57" />
<rect x="32" y="107" width="2" height="1" fill="#0D6E57" />
<rect x="40" y="107" width="2" height="1" fill="#0D6E57" />
<rect x="42" y="107" width="3" height="1" fill="#0D5D57" />
<rect x="113" y="107" width="2" height="1" fill="#0D6E57" />
<rect x="115" y="107" width="3" height="1" fill="#0D5D57" />
<rect x="118" y="107" width="2" height="1" fill="#0D6E57" />
<rect x="125" y="107" width="1" height="1" fill="#0DA457" />
<rect x="126" y="107" width="1" height="1" fill="#0D5D57" />
<rect x="127" y="107" width="1" height="16" fill="#0D6E57" />
<rect x="23" y="108" width="1" height="3" fill="#0D5D57" />
<rect x="27" y="108" width="1" height="6" fill="#0D6E57" />
<rect x="28" y="108" width="2" height="1" fill="#0D5D57" />
<rect x="30" y="108" width="2" height="11" fill="#0D6E57" />
<rect x="32" y="108" width="1" height="2" fill="#0D5D57" />
<rect x="33" y="108" width="1" height="2" fill="#0D6E57" />
<rect x="40" y="108" width="1" height="1" fill="#0D6E57" />
<rect x="41" y="108" width="1" height="1" fill="#0D5D57" />
<rect x="42" y="108" width="3" height="1" fill="#0DA457" />
<rect x="45" y="108" width="1" height="1" fill="#0D5D57" />
<rect x="113" y="108" width="1" height="19" fill="#0D6E57" />
<rect x="114" y="108" width="1" height="1" fill="#0D5D57" />
<rect x="115" y="108" width="3" height="1" fill="#0DA457" />
<rect x="118" y="108" width="1" height="1" fill="#0D5D57" />
<rect x="119" y="108" width="1" height="3" fill="#0D6E57" />
<rect x="122" y="108" width="1" height="3" fill="#0D6E57" />
<rect x="123" y="108" width="1" height="3" fill="#0D5D57" />
<rect x="124" y="108" width="1" height="3" fill="#0DA457" />
<rect x="125" y="108" width="1" height="3" fill="#0D5D57" />
<rect x="126" y="108" width="1" height="15" fill="#0D6E57" />
<rect x="140" y="108" width="1" height="3" fill="#0D5D57" />
<rect x="28" y="109" width="2" height="6" fill="#0D6E57" />
<rect x="40" y="109" width="1" height="2" fill="#0D5D57" />
<rect x="41" y="109" width="1" height="17" fill="#0D6E57" />
<rect x="42" y="109" width="3" height="1" fill="#0D5D57" />
<rect x="45" y="109" width="1" height="18" fill="#0D6E57" />
<rect x="114" y="109" width="1" height="18" fill="#0D6E57" />
<rect x="115" y="109" width="3" height="1" fill="#0D5D57" />
<rect x="118" y="109" width="1" height="1" fill="#0D6E57" />
<rect x="32" y="110" width="1" height="10" fill="#0D6E57" />
<rect x="33" y="110" width="1" height="1" fill="#0D5D57" />
<rect x="42" y="110" width="3" height="16" fill="#0D6E57" />
<rect x="64" y="110" width="1" height="1" fill="#0D5D57" />
<rect x="115" y="110" width="3" height="17" fill="#0D6E57" />
<rect x="118" y="110" width="1" height="1" fill="#0D5D57" />
<rect x="24" y="111" width="1" height="2" fill="#0D5D57" />
<rect x="33" y="111" width="1" height="9" fill="#0D6E57" />
<rect x="34" y="111" width="1" height="1" fill="#0D5D57" />
<rect x="39" y="111" width="1" height="1" fill="#0D5D57" />
<rect x="40" y="111" width="1" height="14" fill="#0D6E57" />
<rect x="63" y="111" width="1" height="2" fill="#0D5D57" />
<rect x="64" y="111" width="1" height="2" fill="#0DA457" />
<rect x="65" y="111" width="1" height="2" fill="#0D5D57" />
<rect x="66" y="111" width="16" height="1" fill="#0D6E57" />
<rect x="118" y="111" width="1" height="16" fill="#0D6E57" />
<rect x="119" y="111" width="2" height="1" fill="#0D5D57" />
<rect x="122" y="111" width="1" height="1" fill="#0D5D57" />
<rect x="123" y="111" width="1" height="13" fill="#0D6E57" />
<rect x="124" y="111" width="1" height="1" fill="#0D5D57" />
<rect x="125" y="111" width="1" height="13" fill="#0D6E57" />
<rect x="139" y="111" width="1" height="3" fill="#0D5D57" />
<rect x="34" y="112" width="1" height="9" fill="#0D6E57" />
<rect x="35" y="112" width="1" height="1" fill="#0D5D57" />
<rect x="36" y="112" width="2" height="1" fill="#0D6E57" />
<rect x="38" y="112" width="1" height="1" fill="#0D5D57" />
<rect x="39" y="112" width="1" height="12" fill="#0D6E57" />
<rect x="66" y="112" width="2" height="1" fill="#0D5D57" />
<rect x="68" y="112" width="6" height="1" fill="#0D6E57" />
<rect x="74" y="112" width="4" height="1" fill="#0D5D57" />
<rect x="78" y="112" width="4" height="1" fill="#0D6E57" />
<rect x="119" y="112" width="2" height="15" fill="#0D6E57" />
<rect x="121" y="112" width="1" height="2" fill="#0D5D57" />
<rect x="122" y="112" width="1" height="12" fill="#0D6E57" />
<rect x="124" y="112" width="1" height="12" fill="#0D6E57" />
<rect x="25" y="113" width="1" height="1" fill="#0D5D57" />
<rect x="35" y="113" width="1" height="9" fill="#0D6E57" />
<rect x="36" y="113" width="2" height="1" fill="#0D5D57" />
<rect x="38" y="113" width="1" height="10" fill="#0D6E57" />
<rect x="63" y="113" width="1" height="17" fill="#0D6E57" />
<rect x="64" y="113" width="1" height="1" fill="#0D5D57" />
<rect x="65" y="113" width="3" height="18" fill="#0D6E57" />
<rect x="68" y="113" width="1" height="1" fill="#0D5D57" />
<rect x="69" y="113" width="4" height="1" fill="#0D6E57" />
<rect x="73" y="113" width="1" height="1" fill="#0D5D57" />
<rect x="74" y="113" width="4" height="1" fill="#0DA457" />
<rect x="78" y="113" width="1" height="1" fill="#0D5D57" />
<rect x="79" y="113" width="3" height="18" fill="#0D6E57" />
<rect x="26" y="114" width="2" height="1" fill="#0D5D57" />
<rect x="36" y="114" width="1" height="9" fill="#0D6E57" />
<rect x="37" y="114" width="1" height="2" fill="#0D5D57" />
<rect x="64" y="114" width="1" height="17" fill="#0D6E57" />
<rect x="68" y="114" width="1" height="17" fill="#0D6E57" />
<rect x="69" y="114" width="1" height="5" fill="#0D5D57" />
<rect x="70" y="114" width="2" height="2" fill="#0D6E57" />
<rect x="72" y="114" width="1" height="2" fill="#0D5D57" />
<rect x="73" y="114" width="1" height="17" fill="#0D6E57" />
<rect x="74" y="114" width="4" height="1" fill="#0D5D57" />
<rect x="78" y="114" width="1" height="17" fill="#0D6E57" />
<rect x="121" y="114" width="1" height="11" fill="#0D6E57" />
<rect x="138" y="114" width="1" height="1" fill="#0D5D57" />
<rect x="28" y="115" width="1" height="2" fill="#0D5D57" />
<rect x="29" y="115" width="1" height="2" fill="#0D6E57" />
<rect x="74" y="115" width="4" height="16" fill="#0D6E57" />
<rect x="88" y="115" width="7" height="16" fill="#0D6E57" />
<rect x="95" y="115" width="1" height="4" fill="#0D5D57" />
<rect x="96" y="115" width="1" height="1" fill="#0D6E57" />
<rect x="137" y="115" width="1" height="2" fill="#0D5D57" />
<rect x="37" y="116" width="1" height="7" fill="#0D6E57" />
<rect x="70" y="116" width="2" height="1" fill="#0D5D57" />
<rect x="72" y="116" width="1" height="15" fill="#0D6E57" />
<rect x="96" y="116" width="1" height="1" fill="#0D5D57" />
<rect x="106" y="116" width="1" height="1" fill="#0D6E57" />
<rect x="107" y="116" width="4" height="1" fill="#0D5D57" />
<rect x="29" y="117" width="1" height="2" fill="#0D5D57" />
<rect x="70" y="117" width="2" height="14" fill="#0D6E57" />
<rect x="96" y="117" width="1" height="2" fill="#0DA457" />
<rect x="97" y="117" width="1" height="1" fill="#0D5D57" />
<rect x="106" y="117" width="1" height="2" fill="#0D5D57" />
<rect x="107" y="117" width="2" height="2" fill="#0DA457" />
<rect x="109" y="117" width="1" height="2" fill="#0D5D57" />
<rect x="110" y="117" width="1" height="13" fill="#0D6E57" />
<rect x="134" y="117" width="2" height="1" fill="#0D6E57" />
<rect x="136" y="117" width="1" height="1" fill="#0D5D57" />
<rect x="97" y="118" width="1" height="2" fill="#0DA457" />
<rect x="98" y="118" width="2" height="1" fill="#0D5D57" />
<rect x="134" y="118" width="2" height="1" fill="#0D5D57" />
<rect x="30" y="119" width="1" height="1" fill="#0D5D57" />
<rect x="31" y="119" width="1" height="1" fill="#0D6E57" />
<rect x="69" y="119" width="1" height="12" fill="#0D6E57" />
<rect x="95" y="119" width="1" height="12" fill="#0D6E57" />
<rect x="96" y="119" width="1" height="1" fill="#0D5D57" />
<rect x="98" y="119" width="2" height="1" fill="#0DA457" />
<rect x="100" y="119" width="1" height="1" fill="#0D5D57" />
<rect x="101" y="119" width="1" height="3" fill="#0D6E57" />
<rect x="105" y="119" width="1" height="2" fill="#0D5D57" />
<rect x="106" y="119" width="1" height="1" fill="#0DA457" />
<rect x="107" y="119" width="2" height="1" fill="#0D5D57" />
<rect x="109" y="119" width="1" height="11" fill="#0D6E57" />
<rect x="133" y="119" width="1" height="1" fill="#0D5D57" />
<rect x="31" y="120" width="3" height="1" fill="#0D5D57" />
<rect x="96" y="120" width="1" height="11" fill="#0D6E57" />
<rect x="97" y="120" width="3" height="1" fill="#0D5D57" />
<rect x="100" y="120" width="1" height="1" fill="#0D6E57" />
<rect x="106" y="120" width="1" height="1" fill="#0D5D57" />
<rect x="107" y="120" width="2" height="10" fill="#0D6E57" />
<rect x="131" y="120" width="2" height="1" fill="#0D5D57" />
<rect x="34" y="121" width="1" height="1" fill="#0D5D57" />
<rect x="97" y="121" width="3" height="10" fill="#0D6E57" />
<rect x="100" y="121" width="1" height="1" fill="#0D5D57" />
<rect x="104" y="121" width="1" height="6" fill="#0D5D57" />
<rect x="105" y="121" width="2" height="9" fill="#0D6E57" />
<rect x="130" y="121" width="1" height="2" fill="#0D5D57" />
<rect x="35" y="122" width="1" height="1" fill="#0D5D57" />
<rect x="100" y="122" width="1" height="9" fill="#0D6E57" />
<rect x="101" y="122" width="2" height="1" fill="#0D5D57" />
<rect x="36" y="123" width="3" height="1" fill="#0D5D57" />
<rect x="101" y="123" width="2" height="7" fill="#0D6E57" />
<rect x="103" y="123" width="1" height="1" fill="#0D5D57" />
<rect x="126" y="123" width="4" height="1" fill="#0D5D57" />
<rect x="39" y="124" width="1" height="1" fill="#0D5D57" />
<rect x="103" y="124" width="1" height="6" fill="#0D6E57" />
<rect x="122" y="124" width="4" height="1" fill="#0D5D57" />
<rect x="40" y="125" width="1" height="1" fill="#0D5D57" />
<rect x="121" y="125" width="1" height="2" fill="#0D5D57" />
<rect x="41" y="126" width="3" height="1" fill="#0D5D57" />
<rect x="44" y="126" width="1" height="1" fill="#0D6E57" />
<rect x="44" y="127" width="8" height="1" fill="#0D5D57" />
<rect x="104" y="127" width="1" height="3" fill="#0D6E57" />
<rect x="113" y="127" width="8" height="1" fill="#0D5D57" />
<rect x="52" y="128" width="1" height="2" fill="#0D5D57" />
<rect x="53" y="128" width="1" height="2" fill="#0D6E57" />
<rect x="112" y="128" width="1" height="2" fill="#0D5D57" />
<rect x="53" y="130" width="11" height="1" fill="#0D5D57" />
<rect x="101" y="130" width="11" height="1" fill="#0D5D57" />
<rect x="64" y="131" width="37" height="1" fill="#0D5D57" />
</svg>