<svg version="1.1" xmlns="http://www.w3.org/2000/svg" 
xmlns:xlink="http://www.w3.org/1999/xlink" 
width="450" height="450" 
viewBox="100 100 270 300"><defs/><g/><g transform="scale(1,1) scale(1,1)"><path fill="rgb(51,51,51)" stroke="rgb(0,0,0)" paint-order="fill stroke markers" d=" M 250 350 L 250 150 L 200 200 L 150 200 L 150 300 L 200 300 L 250 350" fill-opacity="1" stroke-opacity="1" stroke-linecap="round" stroke-linejoin="round" stroke-miterlimit="10" stroke-width="4"/><path fill="none" stroke="rgb(0,0,0)" paint-order="fill stroke markers" d=" M 317.47484211875434 156.20958192104982 C 369.27385970401286 187.95206072217042 385.5328968800708 255.67582453349576 353.7904180789502 307.4748421187543 C 344.2112999341515 323.1065422245501 330.8770955930915 336.0961490016674 315.00000000000006 345.2627944162882" stroke-opacity="1" stroke-linecap="round" stroke-linejoin="round" stroke-miterlimit="10" stroke-width="14"/><path fill="none" stroke="rgb(0,0,0)" paint-order="fill stroke markers" d=" M 296.5748995301164 190.31518849521353 C 329.53791072073545 210.51494773229027 339.88457074186323 253.6118883394973 319.68481150478647 286.5748995301164 C 313.5890090490055 296.5223450519864 305.1036062865128 304.7884584556066 295.00000000000006 310.6217782649107" stroke-opacity="1" stroke-linecap="round" stroke-linejoin="round" stroke-miterlimit="10" stroke-width="14"/><path fill="none" stroke="rgb(0,0,0)" paint-order="fill stroke markers" d=" M 275.67495694147846 224.42079506937722 C 289.80196173745804 233.07783474241012 294.2362446036557 251.54795214549884 285.5792049306228 265.67495694147846 C 282.9667181638595 269.93814787942273 279.330116979934 273.48076790954565 275 275.98076211353316" stroke-opacity="1" stroke-linecap="round" stroke-linejoin="round" stroke-miterlimit="10" stroke-width="14"/></g></svg>